<?xml version="1.0" encoding="UTF-8" standalone="no"?>
<!-- Created with Inkscape (http://www.inkscape.org/) -->

<svg
   xmlns:dc="http://purl.org/dc/elements/1.1/"
   xmlns:cc="http://creativecommons.org/ns#"
   xmlns:rdf="http://www.w3.org/1999/02/22-rdf-syntax-ns#"
   xmlns:svg="http://www.w3.org/2000/svg"
   xmlns="http://www.w3.org/2000/svg"
   xmlns:sodipodi="http://sodipodi.sourceforge.net/DTD/sodipodi-0.dtd"
   xmlns:inkscape="http://www.inkscape.org/namespaces/inkscape"
   width="48.565994mm"
   height="10.847914mm"
   viewBox="0 0 48.565994 10.847914"
   version="1.1"
   id="svg8"
   inkscape:version="0.92.4 (5da689c313, 2019-01-14)"
   sodipodi:docname="ubique.svg">
  <defs
     id="defs2" />
  <sodipodi:namedview
     id="base"
     pagecolor="#ffffff"
     bordercolor="#666666"
     borderopacity="1.0"
     inkscape:pageopacity="0.0"
     inkscape:pageshadow="2"
     inkscape:zoom="1.4142136"
     inkscape:cx="9.2087313"
     inkscape:cy="39.562275"
     inkscape:document-units="mm"
     inkscape:current-layer="layer1"
     showgrid="false"
     inkscape:window-width="1920"
     inkscape:window-height="1016"
     inkscape:window-x="0"
     inkscape:window-y="27"
     inkscape:window-maximized="1"
     showguides="true"
     inkscape:guide-bbox="true"
     inkscape:snap-bbox="true"
     inkscape:bbox-nodes="true"
     inkscape:bbox-paths="true"
     inkscape:snap-bbox-edge-midpoints="true"
     inkscape:snap-bbox-midpoints="true"
     inkscape:object-paths="true"
     inkscape:snap-intersection-paths="true"
     inkscape:snap-smooth-nodes="true"
     inkscape:snap-midpoints="true"
     inkscape:snap-center="true"
     inkscape:snap-object-midpoints="true"
     fit-margin-top="0"
     fit-margin-left="0"
     fit-margin-right="0"
     fit-margin-bottom="0" />
  <metadata
     id="metadata5">
    <rdf:RDF>
      <cc:Work
         rdf:about="">
        <dc:format>image/svg+xml</dc:format>
        <dc:type
           rdf:resource="http://purl.org/dc/dcmitype/StillImage" />
        <dc:title />
      </cc:Work>
    </rdf:RDF>
  </metadata>
  <g
     inkscape:label="Layer 1"
     inkscape:groupmode="layer"
     id="layer1"
     transform="translate(-64.187254,-155.15646)">
    <g
       id="g1245"
       inkscape:export-xdpi="522.99963"
       inkscape:export-ydpi="522.99963">
      <path
         d="m 81.769617,163.87183 c 1.608666,0 2.57175,-1.04775 2.57175,-2.61408 v -4.91067 H 83.33595 v 4.79425 c 0,1.15359 -0.613833,1.75684 -1.566333,1.75684 -0.941917,0 -1.566334,-0.60325 -1.566334,-1.75684 v -4.79425 h -1.005416 v 4.91067 c 0,1.56633 0.963083,2.61408 2.57175,2.61408 z"
         style="font-style:normal;font-variant:normal;font-weight:normal;font-stretch:normal;font-size:10.58333302px;line-height:1.25;font-family:Acre;-inkscape-font-specification:Acre;letter-spacing:0px;word-spacing:0px;fill:#ab37c8;fill-opacity:1;stroke:#ab37c8;stroke-width:0.26458332;stroke-opacity:1"
         id="path1146"
         inkscape:connector-curvature="0" />
      <path
         d="m 88.629601,158.38967 c -0.783167,0 -1.407583,0.381 -1.820333,0.93133 v -4.03225 h -0.994834 v 8.46667 h 0.994834 v -0.86784 c 0.41275,0.56092 1.037166,0.94192 1.820333,0.94192 1.471083,0 2.4765,-1.19592 2.4765,-2.71992 0,-1.524 -1.005417,-2.71991 -2.4765,-2.71991 z m -0.169333,4.46616 c -0.9525,0 -1.640417,-0.81491 -1.640417,-1.74625 0,-0.93133 0.687917,-1.75683 1.640417,-1.75683 0.9525,0 1.619249,0.78317 1.619249,1.75683 0,0.96309 -0.666749,1.74625 -1.619249,1.74625 z"
         style="font-style:normal;font-variant:normal;font-weight:normal;font-stretch:normal;font-size:10.58333302px;line-height:1.25;font-family:Acre;-inkscape-font-specification:Acre;letter-spacing:0px;word-spacing:0px;fill:#ab37c8;fill-opacity:1;stroke:#ab37c8;stroke-width:0.26458332;stroke-opacity:1"
         id="path1148"
         inkscape:connector-curvature="0" />
      <path
         d="m 93.023668,157.46892 c 0.391584,0 0.677334,-0.29634 0.677334,-0.68792 0,-0.37042 -0.28575,-0.66675 -0.677334,-0.66675 -0.391583,0 -0.677333,0.29633 -0.677333,0.66675 0,0.39158 0.28575,0.68792 0.677333,0.68792 z m -0.497416,6.2865 h 0.994833 v -5.29167 h -0.994833 z"
         style="font-style:normal;font-variant:normal;font-weight:normal;font-stretch:normal;font-size:10.58333302px;line-height:1.25;font-family:Acre;-inkscape-font-specification:Acre;letter-spacing:0px;word-spacing:0px;fill:#ab37c8;fill-opacity:1;stroke:#ab37c8;stroke-width:0.26458332;stroke-opacity:1"
         id="path1150"
         inkscape:connector-curvature="0" />
      <path
         d="m 99.250307,158.46375 v 0.84667 c -0.41275,-0.55034 -1.026584,-0.92075 -1.80975,-0.92075 -1.471084,0 -2.4765,1.19591 -2.4765,2.71991 0,1.524 1.005416,2.71992 2.4765,2.71992 0.783166,0 1.397,-0.37042 1.80975,-0.92075 v 2.96333 h 0.994833 v -7.40833 z m -1.640417,4.39208 c -0.9525,0 -1.61925,-0.78316 -1.61925,-1.74625 0,-0.97366 0.66675,-1.75683 1.61925,-1.75683 0.9525,0 1.640417,0.8255 1.640417,1.75683 0,0.93134 -0.687917,1.74625 -1.640417,1.74625 z"
         style="font-style:normal;font-variant:normal;font-weight:normal;font-stretch:normal;font-size:10.58333302px;line-height:1.25;font-family:Acre;-inkscape-font-specification:Acre;letter-spacing:0px;word-spacing:0px;fill:#ab37c8;fill-opacity:1;stroke:#ab37c8;stroke-width:0.26458332;stroke-opacity:1"
         id="path1152"
         inkscape:connector-curvature="0" />
      <path
         d="m 105.31654,158.46375 v 2.88925 c 0,1.04775 -0.55033,1.59808 -1.29117,1.59808 -0.75141,0 -1.29116,-0.55033 -1.29116,-1.59808 v -2.88925 h -0.99484 v 3.03742 c 0,1.57691 0.94192,2.36008 1.97909,2.36008 0.73025,0 1.29116,-0.34925 1.59808,-0.84667 v 0.74084 h 0.99483 v -5.29167 z"
         style="font-style:normal;font-variant:normal;font-weight:normal;font-stretch:normal;font-size:10.58333302px;line-height:1.25;font-family:Acre;-inkscape-font-specification:Acre;letter-spacing:0px;word-spacing:0px;fill:#ab37c8;fill-opacity:1;stroke:#ab37c8;stroke-width:0.26458332;stroke-opacity:1"
         id="path1154"
         inkscape:connector-curvature="0" />
      <path
         d="m 110.13477,158.38967 c -1.55575,0 -2.59292,1.24883 -2.59292,2.71991 0,1.48167 1.016,2.7305 2.69875,2.7305 0.71967,0 1.35467,-0.20108 1.79917,-0.52916 v -1.00542 c -0.508,0.34925 -1.04775,0.5715 -1.74625,0.5715 -0.91017,0 -1.56633,-0.52917 -1.72508,-1.36525 h 4.04283 c 0.11642,-1.67217 -0.8255,-3.12208 -2.4765,-3.12208 z m -0.0212,0.99483 c 0.762,0 1.30175,0.52917 1.44992,1.30175 h -2.9845 c 0.15875,-0.762 0.73025,-1.30175 1.53458,-1.30175 z"
         style="font-style:normal;font-variant:normal;font-weight:normal;font-stretch:normal;font-size:10.58333302px;line-height:1.25;font-family:Acre;-inkscape-font-specification:Acre;letter-spacing:0px;word-spacing:0px;fill:#ab37c8;fill-opacity:1;stroke:#ab37c8;stroke-width:0.26458332;stroke-opacity:1"
         id="path1156"
         inkscape:connector-curvature="0" />
    </g>
    <g
       id="g1126"
       transform="matrix(0.82044652,0,0,0.82044652,16.285816,29.443268)"
       inkscape:export-xdpi="522.99963"
       inkscape:export-ydpi="522.99963">
      <g
         style="stroke-width:8.72844791"
         transform="matrix(0.03031276,0,0,0.03031276,58.384603,152.65498)"
         id="g894">
        <path
           sodipodi:nodetypes="ccccssssccccsssccccscccsccssssssscccccccccccccccccccscccccccccccccccsccccccccccccccssscccccccccc"
           style="fill:#ab37c8;fill-opacity:1;stroke-width:8.72844791"
           inkscape:connector-curvature="0"
           d="m 511.423,364.18508 -13.801,-33.123 c -0.01,-0.025 -0.021,-0.051 -0.032,-0.076 L 387.174,65.985078 c -1.164,-2.795 -3.896,-4.615 -6.923,-4.615 h -36.488 c -4.143,0 -7.5,3.358 -7.5,7.5 0,4.142 3.357,7.5 7.5,7.5 h 31.488 L 479.445,326.43908 H 247.195 L 143.001,76.370078 h 170.793 c 4.143,0 7.5,-3.358 7.5,-7.5 0,-4.142 -3.357,-7.5 -7.5,-7.5 H 139.251 c -14.27683,0 -15,3.88759 -15,6 L 37.665,275.17908 2.094,312.17308 c -2.832,2.944 -2.786,7.613 0.103,10.502 l 11.067,11.067 -12.685,30.443 c -0.964,2.315 -0.708,4.958 0.683,7.045 1.391,2.086 3.733,3.34 6.24,3.34 h 49.693 0.081 149.002 c 0.009,0 0.018,0.002 0.026,0.002 0.013,0 0.027,-0.002 0.04,-0.002 h 49.632 c 0.009,0 0.018,0.002 0.027,0.002 0.013,0 0.027,-0.002 0.04,-0.002 H 504.5 c 2.508,0 4.85,-1.253 6.24,-3.34 1.392,-2.087 1.648,-4.73 0.683,-7.045 z m -492.67,-4.615 5.982,-14.359 14.36,14.359 z m 35.834,-5.723 -27.096,-27.094 c -0.016,-0.017 -0.033,-0.033 -0.049,-0.049 l -9.437,-9.436 91.453,-95.112 z m 13.866,5.723 63.3,-151.92 63.299,151.92 z m 142.849,0 -72.627,-174.305 c -0.002,-0.004 -0.004,-0.007 -0.005,-0.011 -0.131,-0.312 -0.287,-0.615 -0.462,-0.91 -0.035,-0.059 -0.071,-0.116 -0.107,-0.174 -0.156,-0.249 -0.327,-0.492 -0.516,-0.725 -0.027,-0.034 -0.051,-0.07 -0.079,-0.103 -0.173,-0.207 -0.357,-0.407 -0.556,-0.599 -0.036,-0.035 -0.076,-0.064 -0.112,-0.098 -0.062,-0.057 -0.127,-0.111 -0.192,-0.166 -0.204,-0.176 -0.414,-0.339 -0.63,-0.49 -0.053,-0.036 -0.103,-0.076 -0.157,-0.111 -0.277,-0.182 -0.561,-0.343 -0.854,-0.484 -0.043,-0.021 -0.088,-0.038 -0.131,-0.058 -0.267,-0.122 -0.54,-0.228 -0.817,-0.317 -0.058,-0.019 -0.116,-0.04 -0.174,-0.057 -0.313,-0.093 -0.631,-0.165 -0.952,-0.216 -0.06,-0.01 -0.122,-0.014 -0.183,-0.023 -0.29,-0.039 -0.581,-0.06 -0.873,-0.065 -0.041,-0.001 -0.081,-0.009 -0.122,-0.009 -0.019,0 -0.037,0.004 -0.056,0.004 -0.326,0.002 -0.651,0.028 -0.974,0.073 -0.073,0.01 -0.145,0.023 -0.217,0.036 -0.295,0.049 -0.588,0.114 -0.876,0.199 -0.031,0.009 -0.064,0.016 -0.095,0.025 -0.314,0.097 -0.621,0.219 -0.922,0.358 -0.057,0.027 -0.113,0.055 -0.17,0.083 -0.268,0.132 -0.529,0.278 -0.783,0.443 -0.03,0.019 -0.061,0.036 -0.091,0.056 -0.267,0.18 -0.523,0.38 -0.769,0.597 -0.061,0.054 -0.118,0.111 -0.177,0.167 -0.093,0.087 -0.189,0.168 -0.278,0.261 l -60.005,62.405 57.911,-138.986 v 28.767 c 0,4.142 3.358,7.5 7.5,7.5 4.142,0 7.5,-3.358 7.5,-7.5 v -28.767 c 24.117,57.88 72.312,173.551 96.019,230.447 0.01,0.024 0.02,0.049 0.031,0.073 3.878,9.306 7.1,17.039 9.45,22.68 z m 49.698,0 -7.555,-18.131 h 232.25 l 7.555,18.131 z"
           id="path833" />
        <g
           style="stroke-width:8.72844791"
           id="g839" />
        <g
           style="stroke-width:8.72844791"
           id="g841" />
        <g
           style="stroke-width:8.72844791"
           id="g843" />
        <g
           style="stroke-width:8.72844791"
           id="g845" />
        <g
           style="stroke-width:8.72844791"
           id="g847" />
        <g
           style="stroke-width:8.72844791"
           id="g849" />
        <g
           style="stroke-width:8.72844791"
           id="g851" />
        <g
           style="stroke-width:8.72844791"
           id="g853" />
        <g
           style="stroke-width:8.72844791"
           id="g855" />
        <g
           style="stroke-width:8.72844791"
           id="g857" />
        <g
           style="stroke-width:8.72844791"
           id="g859" />
        <g
           style="stroke-width:8.72844791"
           id="g861" />
        <g
           style="stroke-width:8.72844791"
           id="g863" />
        <g
           style="stroke-width:8.72844791"
           id="g865" />
        <g
           style="stroke-width:8.72844791"
           id="g867" />
      </g>
      <g
         transform="rotate(-90,52.253289,157.51709)"
         id="g850">
        <path
           style="fill:#ab37c8;fill-opacity:1;stroke:none;stroke-width:1;stroke-linecap:round;stroke-miterlimit:4;stroke-dasharray:none;stroke-opacity:1"
           d="m 49.549612,174.06748 c -0.293381,0.12224 -0.531213,0.0563 -0.531213,-0.14725 0,-0.20357 0.237832,-0.46768 0.531213,-0.58993 0.140888,-0.0587 0.276006,-0.0762 0.375629,-0.0486 0.09962,0.0276 0.15559,0.0981 0.15559,0.1958 0,0.0978 -0.05597,0.21483 -0.15559,0.32546 -0.09962,0.11064 -0.234741,0.20577 -0.375629,0.26447 0,0 0,0 0,0"
           id="path899"
           inkscape:connector-curvature="0" />
        <path
           style="color:#000000;font-style:normal;font-variant:normal;font-weight:normal;font-stretch:normal;font-size:medium;line-height:normal;font-family:sans-serif;font-variant-ligatures:normal;font-variant-position:normal;font-variant-caps:normal;font-variant-numeric:normal;font-variant-alternates:normal;font-feature-settings:normal;text-indent:0;text-align:start;text-decoration:none;text-decoration-line:none;text-decoration-style:solid;text-decoration-color:#000000;letter-spacing:normal;word-spacing:normal;text-transform:none;writing-mode:lr-tb;direction:ltr;text-orientation:mixed;dominant-baseline:auto;baseline-shift:baseline;text-anchor:start;white-space:normal;shape-padding:0;clip-rule:nonzero;display:inline;overflow:visible;visibility:visible;opacity:1;isolation:auto;mix-blend-mode:normal;color-interpolation:sRGB;color-interpolation-filters:linearRGB;solid-color:#000000;solid-opacity:1;vector-effect:none;fill:#ab37c8;fill-opacity:1;fill-rule:nonzero;stroke:none;stroke-width:0.75;stroke-linecap:round;stroke-linejoin:miter;stroke-miterlimit:4;stroke-dasharray:none;stroke-dashoffset:0;stroke-opacity:1;color-rendering:auto;image-rendering:auto;shape-rendering:auto;text-rendering:auto;enable-background:accumulate"
           d="m 50.928799,173.06081 c -0.024,-0.27635 -0.217608,-0.45275 -0.485966,-0.5748 -0.0487,-0.0223 -0.12643,-0.0112 -0.203907,0.0291 -0.07748,0.0403 -0.14293,0.1036 -0.171697,0.16613 -0.02877,0.0625 -0.01648,0.11478 0.03223,0.13704 0.234756,0.10677 0.374373,0.24774 0.391282,0.44249 0.01694,0.19473 -0.08032,0.45293 -0.389004,0.84279 -0.04973,0.0627 -0.06339,0.12562 -0.03584,0.16502 0.02755,0.0394 0.09213,0.0493 0.169414,0.026 0.07728,-0.0233 0.155517,-0.0763 0.205236,-0.13903 0.358024,-0.45218 0.512243,-0.81834 0.488249,-1.0947 0,0 0,0 0,0"
           id="path840"
           inkscape:connector-curvature="0" />
        <path
           style="color:#000000;font-style:normal;font-variant:normal;font-weight:normal;font-stretch:normal;font-size:medium;line-height:normal;font-family:sans-serif;font-variant-ligatures:normal;font-variant-position:normal;font-variant-caps:normal;font-variant-numeric:normal;font-variant-alternates:normal;font-feature-settings:normal;text-indent:0;text-align:start;text-decoration:none;text-decoration-line:none;text-decoration-style:solid;text-decoration-color:#000000;letter-spacing:normal;word-spacing:normal;text-transform:none;writing-mode:lr-tb;direction:ltr;text-orientation:mixed;dominant-baseline:auto;baseline-shift:baseline;text-anchor:start;white-space:normal;shape-padding:0;clip-rule:nonzero;display:inline;overflow:visible;visibility:visible;opacity:1;isolation:auto;mix-blend-mode:normal;color-interpolation:sRGB;color-interpolation-filters:linearRGB;solid-color:#000000;solid-opacity:1;vector-effect:none;fill:#ab37c8;fill-opacity:1;fill-rule:nonzero;stroke:none;stroke-width:0.75;stroke-linecap:round;stroke-linejoin:miter;stroke-miterlimit:4;stroke-dasharray:none;stroke-dashoffset:0;stroke-opacity:1;color-rendering:auto;image-rendering:auto;shape-rendering:auto;text-rendering:auto;enable-background:accumulate"
           d="m 51.956631,172.60485 c -0.03598,-0.41445 -0.326811,-0.68478 -0.742641,-0.8739 -0.04891,-0.0222 -0.126823,-0.011 -0.2044,0.0295 -0.07758,0.0404 -0.143028,0.10391 -0.171694,0.16652 -0.02867,0.0626 -0.01619,0.11485 0.03272,0.13703 0.382234,0.17384 0.620202,0.40749 0.649096,0.74033 0.02891,0.33284 -0.142706,0.775 -0.646813,1.41168 -0.05328,0.0639 -0.06939,0.12921 -0.04197,0.17017 0.02741,0.041 0.09395,0.051 0.173385,0.0262 0.07943,-0.0248 0.159022,-0.0805 0.207391,-0.14519 0.553461,-0.699 0.780904,-1.24785 0.744925,-1.66231 0,0 0,0 0,0"
           id="path842"
           inkscape:connector-curvature="0" />
        <path
           style="color:#000000;font-style:normal;font-variant:normal;font-weight:normal;font-stretch:normal;font-size:medium;line-height:normal;font-family:sans-serif;font-variant-ligatures:normal;font-variant-position:normal;font-variant-caps:normal;font-variant-numeric:normal;font-variant-alternates:normal;font-feature-settings:normal;text-indent:0;text-align:start;text-decoration:none;text-decoration-line:none;text-decoration-style:solid;text-decoration-color:#000000;letter-spacing:normal;word-spacing:normal;text-transform:none;writing-mode:lr-tb;direction:ltr;text-orientation:mixed;dominant-baseline:auto;baseline-shift:baseline;text-anchor:start;white-space:normal;shape-padding:0;clip-rule:nonzero;display:inline;overflow:visible;visibility:visible;opacity:1;isolation:auto;mix-blend-mode:normal;color-interpolation:sRGB;color-interpolation-filters:linearRGB;solid-color:#000000;solid-opacity:1;vector-effect:none;fill:#ab37c8;fill-opacity:1;fill-rule:nonzero;stroke:none;stroke-width:0.75;stroke-linecap:round;stroke-linejoin:miter;stroke-miterlimit:4;stroke-dasharray:none;stroke-dashoffset:0;stroke-opacity:1;color-rendering:auto;image-rendering:auto;shape-rendering:auto;text-rendering:auto;enable-background:accumulate"
           d="m 52.99701,172.13812 c -0.05041,-0.58049 -0.459776,-0.96164 -1.05293,-1.23141 -0.04718,-0.0259 -0.126695,-0.0166 -0.206843,0.0242 -0.08015,0.0408 -0.14789,0.10648 -0.176217,0.17083 -0.02833,0.0643 -0.01263,0.11691 0.04083,0.13672 0.559558,0.25449 0.913792,0.6007 0.957107,1.09958 0.04334,0.49887 -0.216878,1.1611 -0.955963,2.09455 -0.05328,0.0639 -0.06938,0.12921 -0.04197,0.17018 0.02741,0.041 0.09395,0.051 0.173384,0.0262 0.07943,-0.0248 0.159019,-0.0805 0.207389,-0.14519 0.788439,-0.99578 1.105607,-1.76517 1.055214,-2.34567 0,0 0,0 0,0"
           id="path844"
           inkscape:connector-curvature="0" />
      </g>
    </g>
  </g>
</svg>
